# 3ds Max Wavefront OBJ Exporter v0.97b - (c)2007 guruware
# File Created: 05.07.2015 06:23:34

mtllib Simple_wooden_crate.mtl

#
# object woodenCrate
#

v  -17.5000 1.5617 17.5000
v  -17.5000 1.5617 -17.5000
v  17.5000 1.5617 -17.5000
v  17.5000 1.5617 17.5000
v  -17.5000 38.4383 17.5000
v  17.5000 38.4383 17.5000
v  17.5000 38.4383 -17.5000
v  -17.5000 38.4383 -17.5000
v  -17.5000 2.5000 18.4383
v  17.5000 2.5000 18.4383
v  17.5000 37.5000 18.4383
v  -17.5000 37.5000 18.4383
v  18.4383 2.5000 17.5000
v  18.4383 2.5000 -17.5000
v  18.4383 37.5000 -17.5000
v  18.4383 37.5000 17.5000
v  17.5000 2.5000 -18.4383
v  -17.5000 2.5000 -18.4383
v  -17.5000 37.5000 -18.4383
v  17.5000 37.5000 -18.4383
v  -18.4383 2.5000 -17.5000
v  -18.4383 2.5000 17.5000
v  -18.4383 37.5000 17.5000
v  -18.4383 37.5000 -17.5000
v  -20.0000 0.0000 20.0000
v  -20.0000 0.0000 -20.0000
v  -17.5000 0.0000 -17.5000
v  -17.5000 0.0000 17.5000
v  20.0000 0.0000 -20.0000
v  17.5000 0.0000 -17.5000
v  20.0000 0.0000 20.0000
v  17.5000 0.0000 17.5000
v  -20.0000 40.0000 20.0000
v  20.0000 40.0000 20.0000
v  17.5000 40.0000 17.5000
v  -17.5000 40.0000 17.5000
v  20.0000 40.0000 -20.0000
v  17.5000 40.0000 -17.5000
v  -20.0000 40.0000 -20.0000
v  -17.5000 40.0000 -17.5000
v  17.5000 2.5000 20.0000
v  -17.5000 2.5000 20.0000
v  17.5000 37.5000 20.0000
v  -17.5000 37.5000 20.0000
v  20.0000 2.5000 -17.5000
v  20.0000 2.5000 17.5000
v  20.0000 37.5000 -17.5000
v  20.0000 37.5000 17.5000
v  -17.5000 2.5000 -20.0000
v  17.5000 2.5000 -20.0000
v  -17.5000 37.5000 -20.0000
v  17.5000 37.5000 -20.0000
v  -20.0000 2.5000 17.5000
v  -20.0000 2.5000 -17.5000
v  -20.0000 37.5000 17.5000
v  -20.0000 37.5000 -17.5000
v  -17.0774 38.8204 18.0030
v  -17.0773 38.8204 -17.6845
v  -10.6111 38.8204 -17.6845
v  -10.6111 38.8204 18.0030
v  -17.0774 39.2548 18.0030
v  -10.6111 39.2548 18.0030
v  -10.6111 39.2548 -17.6845
v  -17.0773 39.2548 -17.6845
v  -10.1371 38.8204 18.0030
v  -10.1371 38.8204 -17.6845
v  -3.6709 38.8204 -17.6845
v  -3.6709 38.8204 18.0030
v  -10.1371 39.2548 18.0030
v  -3.6709 39.2548 18.0030
v  -3.6709 39.2548 -17.6845
v  -10.1371 39.2548 -17.6845
v  -3.1969 38.8204 18.0030
v  -3.1969 38.8204 -17.6845
v  3.2693 38.8204 -17.6845
v  3.2693 38.8204 18.0030
v  -3.1969 39.2548 18.0030
v  3.2693 39.2548 18.0030
v  3.2693 39.2548 -17.6845
v  -3.1969 39.2548 -17.6845
v  3.7433 38.8204 18.0030
v  3.7433 38.8204 -17.6845
v  10.2096 38.8204 -17.6845
v  10.2095 38.8204 18.0030
v  3.7433 39.2548 18.0030
v  10.2095 39.2548 18.0030
v  10.2096 39.2548 -17.6845
v  3.7433 39.2548 -17.6845
v  10.6836 38.8204 18.0030
v  10.6836 38.8204 -17.6845
v  17.1498 38.8204 -17.6845
v  17.1498 38.8204 18.0030
v  10.6836 39.2548 18.0030
v  17.1498 39.2548 18.0030
v  17.1498 39.2548 -17.6845
v  10.6836 39.2548 -17.6845
v  -18.8204 38.0030 17.0774
v  -18.8204 2.3155 17.0773
v  -18.8204 2.3155 10.6111
v  -18.8204 38.0030 10.6111
v  -19.2548 38.0030 17.0774
v  -19.2548 38.0030 10.6111
v  -19.2548 2.3155 10.6111
v  -19.2548 2.3155 17.0773
v  -18.8204 38.0030 10.1371
v  -18.8204 2.3155 10.1371
v  -18.8204 2.3155 3.6709
v  -18.8204 38.0030 3.6709
v  -19.2548 38.0030 10.1371
v  -19.2548 38.0030 3.6709
v  -19.2548 2.3155 3.6709
v  -19.2548 2.3155 10.1371
v  -18.8204 38.0030 3.1969
v  -18.8204 2.3155 3.1969
v  -18.8204 2.3155 -3.2693
v  -18.8204 38.0030 -3.2693
v  -19.2548 38.0030 3.1969
v  -19.2548 38.0030 -3.2693
v  -19.2548 2.3155 -3.2693
v  -19.2548 2.3155 3.1969
v  -18.8204 38.0030 -3.7433
v  -18.8204 2.3155 -3.7433
v  -18.8204 2.3155 -10.2096
v  -18.8204 38.0030 -10.2095
v  -19.2548 38.0030 -3.7433
v  -19.2548 38.0030 -10.2095
v  -19.2548 2.3155 -10.2096
v  -19.2548 2.3155 -3.7433
v  -18.8204 38.0030 -10.6836
v  -18.8204 2.3155 -10.6836
v  -18.8204 2.3155 -17.1498
v  -18.8204 38.0030 -17.1498
v  -19.2548 38.0030 -10.6836
v  -19.2548 38.0030 -17.1498
v  -19.2548 2.3155 -17.1498
v  -19.2548 2.3155 -10.6836
v  -17.0773 38.0030 -18.8204
v  -17.0773 2.3155 -18.8204
v  -10.6111 2.3155 -18.8204
v  -10.6111 38.0030 -18.8204
v  -17.0773 38.0030 -19.2548
v  -10.6111 38.0030 -19.2548
v  -10.6111 2.3155 -19.2548
v  -17.0773 2.3155 -19.2548
v  -10.1371 38.0030 -18.8204
v  -10.1371 2.3155 -18.8204
v  -3.6709 2.3155 -18.8204
v  -3.6709 38.0030 -18.8204
v  -10.1371 38.0030 -19.2548
v  -3.6709 38.0030 -19.2548
v  -3.6709 2.3155 -19.2548
v  -10.1371 2.3155 -19.2548
v  -3.1969 38.0030 -18.8204
v  -3.1969 2.3155 -18.8204
v  3.2693 2.3155 -18.8204
v  3.2693 38.0030 -18.8204
v  -3.1969 38.0030 -19.2548
v  3.2693 38.0030 -19.2548
v  3.2693 2.3155 -19.2548
v  -3.1969 2.3155 -19.2548
v  3.7433 38.0030 -18.8204
v  3.7434 2.3155 -18.8204
v  10.2096 2.3155 -18.8204
v  10.2096 38.0030 -18.8204
v  3.7433 38.0030 -19.2548
v  10.2096 38.0030 -19.2548
v  10.2096 2.3155 -19.2548
v  3.7434 2.3155 -19.2548
v  10.6836 38.0030 -18.8204
v  10.6836 2.3155 -18.8204
v  17.1498 2.3155 -18.8204
v  17.1498 38.0030 -18.8204
v  10.6836 38.0030 -19.2548
v  17.1498 38.0030 -19.2548
v  17.1498 2.3155 -19.2548
v  10.6836 2.3155 -19.2548
v  17.0774 38.0030 18.8204
v  17.0774 2.3155 18.8204
v  10.6111 2.3155 18.8204
v  10.6111 38.0030 18.8204
v  17.0774 38.0030 19.2548
v  10.6111 38.0030 19.2548
v  10.6111 2.3155 19.2548
v  17.0774 2.3155 19.2548
v  10.1371 38.0030 18.8204
v  10.1371 2.3155 18.8204
v  3.6709 2.3155 18.8204
v  3.6709 38.0030 18.8204
v  10.1371 38.0030 19.2548
v  3.6709 38.0030 19.2548
v  3.6709 2.3155 19.2548
v  10.1371 2.3155 19.2548
v  3.1969 38.0030 18.8204
v  3.1969 2.3155 18.8204
v  -3.2693 2.3155 18.8204
v  -3.2693 38.0030 18.8204
v  3.1969 38.0030 19.2548
v  -3.2693 38.0030 19.2548
v  -3.2693 2.3155 19.2548
v  3.1969 2.3155 19.2548
v  -3.7433 38.0030 18.8204
v  -3.7433 2.3155 18.8204
v  -10.2095 2.3155 18.8204
v  -10.2095 38.0030 18.8204
v  -3.7433 38.0030 19.2548
v  -10.2095 38.0030 19.2548
v  -10.2095 2.3155 19.2548
v  -3.7433 2.3155 19.2548
v  -10.6836 38.0030 18.8204
v  -10.6836 2.3155 18.8204
v  -17.1498 2.3155 18.8204
v  -17.1498 38.0030 18.8204
v  -10.6836 38.0030 19.2548
v  -17.1498 38.0030 19.2548
v  -17.1498 2.3155 19.2548
v  -10.6836 2.3155 19.2548
v  18.8204 38.0030 -17.0774
v  18.8204 2.3155 -17.0773
v  18.8204 2.3155 -10.6111
v  18.8204 38.0030 -10.6111
v  19.2548 38.0030 -17.0774
v  19.2548 38.0030 -10.6111
v  19.2548 2.3155 -10.6111
v  19.2548 2.3155 -17.0773
v  18.8204 38.0030 -10.1371
v  18.8204 2.3155 -10.1371
v  18.8204 2.3155 -3.6709
v  18.8204 38.0030 -3.6709
v  19.2548 38.0030 -10.1371
v  19.2548 38.0030 -3.6709
v  19.2548 2.3155 -3.6709
v  19.2548 2.3155 -10.1371
v  18.8204 38.0030 -3.1969
v  18.8204 2.3155 -3.1969
v  18.8204 2.3155 3.2693
v  18.8204 38.0030 3.2693
v  19.2548 38.0030 -3.1969
v  19.2548 38.0030 3.2693
v  19.2548 2.3155 3.2693
v  19.2548 2.3155 -3.1969
v  18.8204 38.0030 3.7433
v  18.8204 2.3155 3.7433
v  18.8204 2.3155 10.2096
v  18.8204 38.0030 10.2096
v  19.2548 38.0030 3.7433
v  19.2548 38.0030 10.2096
v  19.2548 2.3155 10.2096
v  19.2548 2.3155 3.7433
v  18.8204 38.0030 10.6836
v  18.8204 2.3155 10.6836
v  18.8204 2.3155 17.1498
v  18.8204 38.0030 17.1498
v  19.2548 38.0030 10.6836
v  19.2548 38.0030 17.1498
v  19.2548 2.3155 17.1498
v  19.2548 2.3155 10.6836
v  -17.0773 1.1796 -18.0030
v  -17.0774 1.1796 17.6845
v  -10.6111 1.1796 17.6845
v  -10.6111 1.1796 -18.0030
v  -17.0773 0.7452 -18.0030
v  -10.6111 0.7452 -18.0030
v  -10.6111 0.7452 17.6845
v  -17.0774 0.7452 17.6845
v  -10.1371 1.1796 -18.0030
v  -10.1371 1.1796 17.6845
v  -3.6709 1.1796 17.6845
v  -3.6709 1.1796 -18.0030
v  -10.1371 0.7452 -18.0030
v  -3.6709 0.7452 -18.0030
v  -3.6709 0.7452 17.6845
v  -10.1371 0.7452 17.6845
v  -3.1969 1.1796 -18.0030
v  -3.1969 1.1796 17.6845
v  3.2693 1.1796 17.6845
v  3.2693 1.1796 -18.0030
v  -3.1969 0.7452 -18.0030
v  3.2693 0.7452 -18.0030
v  3.2693 0.7452 17.6845
v  -3.1969 0.7452 17.6845
v  3.7433 1.1796 -18.0030
v  3.7433 1.1796 17.6845
v  10.2096 1.1796 17.6845
v  10.2096 1.1796 -18.0030
v  3.7433 0.7452 -18.0030
v  10.2096 0.7452 -18.0030
v  10.2096 0.7452 17.6845
v  3.7433 0.7452 17.6845
v  10.6836 1.1796 -18.0030
v  10.6836 1.1796 17.6845
v  17.1498 1.1796 17.6845
v  17.1498 1.1796 -18.0030
v  10.6836 0.7452 -18.0030
v  17.1498 0.7452 -18.0030
v  17.1498 0.7452 17.6845
v  10.6836 0.7452 17.6845
# 296 vertices

vn 0.0000 -1.0000 -0.0000
vn 0.0000 1.0000 -0.0000
vn 0.0000 0.0000 1.0000
vn 1.0000 0.0000 -0.0000
vn 0.0000 0.0000 -1.0000
vn -1.0000 0.0000 -0.0000
vn 0.0000 -1.0000 0.0000
vn 1.0000 0.0000 0.0000
vn -0.0000 -1.0000 0.0000
vn -0.0000 0.0000 1.0000
vn -0.0000 1.0000 -0.0000
vn -1.0000 -0.0000 -0.0000
vn 0.0000 -0.0000 1.0000
vn 0.0000 1.0000 0.0000
vn 0.0000 -0.0000 -1.0000
vn -0.0000 0.0000 -1.0000
vn 1.0000 -0.0000 -0.0000
vn -0.0000 -0.0000 1.0000
vn -0.0000 -1.0000 -0.0000
vn 1.0000 -0.0000 0.0000
# 20 vertex normals

vt 1.0000 0.0000 0.0000
vt 1.0000 1.0000 0.0000
vt 0.0000 1.0000 0.0000
vt 0.0000 0.0000 0.0000
# 4 texture coords

g woodenCrate
usemtl wire_115115115
s 2
f 1/1/1 2/2/1 3/3/1 4/4/1 
s 4
f 5/4/2 6/1/2 7/2/2 8/3/2 
s 8
f 9/4/3 10/1/3 11/2/3 12/3/3 
s 16
f 13/4/4 14/1/4 15/2/4 16/3/4 
s 32
f 17/4/5 18/1/5 19/2/5 20/3/5 
s 64
f 21/4/6 22/1/6 23/2/6 24/3/6 
s off
f 25/1/1 26/2/1 27/2/1 28/1/1 
f 26/2/1 29/3/1 30/3/1 27/2/1 
f 29/3/1 31/4/1 32/4/1 30/3/1 
f 31/4/1 25/1/1 28/1/1 32/4/1 
f 33/4/2 34/1/2 35/1/2 36/4/2 
f 34/1/2 37/2/2 38/2/2 35/1/2 
f 37/2/2 39/3/2 40/3/2 38/2/2 
f 39/3/2 33/4/2 36/4/2 40/3/2 
f 25/4/3 31/1/3 41/1/3 42/4/3 
f 31/1/3 34/2/3 43/2/3 41/1/3 
f 34/2/3 33/3/3 44/3/3 43/2/3 
f 33/3/3 25/4/3 42/4/3 44/3/3 
f 31/4/4 29/1/4 45/1/4 46/4/4 
f 29/1/4 37/2/4 47/2/4 45/1/4 
f 37/2/4 34/3/4 48/3/4 47/2/4 
f 34/3/4 31/4/4 46/4/4 48/3/4 
f 29/4/5 26/1/5 49/1/5 50/4/5 
f 26/1/5 39/2/5 51/2/5 49/1/5 
f 39/2/5 37/3/5 52/3/5 51/2/5 
f 37/3/5 29/4/5 50/4/5 52/3/5 
f 26/4/6 25/1/6 53/1/6 54/4/6 
f 25/1/6 33/2/6 55/2/6 53/1/6 
f 33/2/6 39/3/6 56/3/6 55/2/6 
f 39/3/6 26/4/6 54/4/6 56/3/6 
f 28/1/4 27/2/4 2/2/4 1/1/4 
f 27/2/3 30/3/3 3/3/3 2/2/3 
f 30/3/6 32/4/6 4/4/6 3/3/6 
f 32/4/5 28/1/5 1/1/5 4/4/5 
f 36/4/5 35/1/5 6/1/5 5/4/5 
f 35/1/6 38/2/6 7/2/6 6/1/6 
f 38/2/3 40/3/3 8/3/3 7/2/3 
f 40/3/4 36/4/4 5/4/4 8/3/4 
f 42/4/2 41/1/2 10/1/2 9/4/2 
f 41/1/6 43/2/6 11/2/6 10/1/6 
f 43/2/1 44/3/1 12/3/1 11/2/1 
f 44/3/4 42/4/4 9/4/4 12/3/4 
f 46/4/2 45/1/2 14/1/2 13/4/2 
f 45/1/3 47/2/3 15/2/3 14/1/3 
f 47/2/1 48/3/1 16/3/1 15/2/1 
f 48/3/5 46/4/5 13/4/5 16/3/5 
f 50/4/2 49/1/2 18/1/2 17/4/2 
f 49/1/4 51/2/4 19/2/4 18/1/4 
f 51/2/1 52/3/1 20/3/1 19/2/1 
f 52/3/6 50/4/6 17/4/6 20/3/6 
f 54/4/2 53/1/2 22/1/2 21/4/2 
f 53/1/5 55/2/5 23/2/5 22/1/5 
f 55/2/1 56/3/1 24/3/1 23/2/1 
f 56/3/3 54/4/3 21/4/3 24/3/3 
s 2
f 57/1/7 58/2/7 59/3/7 60/4/7 
s 4
f 61/4/2 62/1/2 63/2/2 64/3/2 
s 8
f 57/4/3 60/1/3 62/2/3 61/3/3 
s 16
f 60/4/8 59/1/8 63/2/8 62/3/8 
s 32
f 59/4/5 58/1/5 64/2/5 63/3/5 
s 64
f 58/4/6 57/1/6 61/2/6 64/3/6 
s 2
f 65/1/9 66/2/9 67/3/9 68/4/9 
s 4
f 69/4/2 70/1/2 71/2/2 72/3/2 
s 8
f 65/4/10 68/1/10 70/2/10 69/3/10 
s 16
f 68/4/8 67/1/8 71/2/8 70/3/8 
s 32
f 67/4/5 66/1/5 72/2/5 71/3/5 
s 64
f 66/4/6 65/1/6 69/2/6 72/3/6 
s 2
f 73/1/7 74/2/7 75/3/7 76/4/7 
s 4
f 77/4/11 78/1/11 79/2/11 80/3/2 
s 8
f 73/4/3 76/1/3 78/2/3 77/3/3 
s 16
f 76/4/8 75/1/8 79/2/8 78/3/8 
s 32
f 75/4/5 74/1/5 80/2/5 79/3/5 
s 64
f 74/4/6 73/1/6 77/2/6 80/3/6 
s 2
f 81/1/9 82/2/9 83/3/9 84/4/9 
s 4
f 85/4/2 86/1/2 87/2/2 88/3/2 
s 8
f 81/4/10 84/1/10 86/2/10 85/3/10 
s 16
f 84/4/8 83/1/8 87/2/8 86/3/8 
s 32
f 83/4/5 82/1/5 88/2/5 87/3/5 
s 64
f 82/4/6 81/1/6 85/2/6 88/3/6 
s 2
f 89/1/7 90/2/7 91/3/7 92/4/7 
s 4
f 93/4/2 94/1/2 95/2/2 96/3/2 
s 8
f 89/4/3 92/1/3 94/2/3 93/3/3 
s 16
f 92/4/8 91/1/8 95/2/8 94/3/8 
s 32
f 91/4/5 90/1/5 96/2/5 95/3/5 
s 64
f 90/4/6 89/1/6 93/2/6 96/3/6 
s 2
f 97/1/4 98/2/4 99/3/4 100/4/4 
s 4
f 101/4/12 102/1/12 103/2/12 104/3/12 
s 8
f 97/4/2 100/1/2 102/2/2 101/3/2 
s 16
f 100/4/5 99/1/5 103/2/5 102/3/5 
s 32
f 99/4/1 98/1/1 104/2/1 103/3/1 
s 64
f 98/4/13 97/1/13 101/2/13 104/3/13 
s 2
f 105/1/4 106/2/4 107/3/4 108/4/4 
s 4
f 109/4/12 110/1/12 111/2/12 112/3/12 
s 8
f 105/4/2 108/1/2 110/2/2 109/3/2 
s 16
f 108/4/5 107/1/5 111/2/5 110/3/5 
s 32
f 107/4/1 106/1/1 112/2/1 111/3/1 
s 64
f 106/4/13 105/1/13 109/2/13 112/3/13 
s 2
f 113/1/8 114/2/8 115/3/8 116/4/8 
s 4
f 117/4/12 118/1/12 119/2/12 120/3/12 
s 8
f 113/4/14 116/1/14 118/2/14 117/3/14 
s 16
f 116/4/5 115/1/5 119/2/5 118/3/5 
s 32
f 115/4/1 114/1/1 120/2/1 119/3/1 
s 64
f 114/4/13 113/1/13 117/2/13 120/3/13 
s 2
f 121/1/4 122/2/4 123/3/4 124/4/4 
s 4
f 125/4/12 126/1/12 127/2/12 128/3/12 
s 8
f 121/4/2 124/1/2 126/2/2 125/3/2 
s 16
f 124/4/5 123/1/5 127/2/5 126/3/5 
s 32
f 123/4/1 122/1/1 128/2/1 127/3/1 
s 64
f 122/4/13 121/1/13 125/2/13 128/3/13 
s 2
f 129/1/4 130/2/4 131/3/4 132/4/4 
s 4
f 133/4/12 134/1/12 135/2/12 136/3/12 
s 8
f 129/4/2 132/1/2 134/2/2 133/3/2 
s 16
f 132/4/5 131/1/5 135/2/5 134/3/5 
s 32
f 131/4/1 130/1/1 136/2/1 135/3/1 
s 64
f 130/4/13 129/1/13 133/2/13 136/3/13 
s 2
f 137/1/10 138/2/10 139/3/10 140/4/10 
s 4
f 141/4/15 142/1/15 143/2/15 144/3/15 
s 8
f 137/4/2 140/1/2 142/2/2 141/3/2 
s 16
f 140/4/4 139/1/4 143/2/4 142/3/4 
s 32
f 139/4/1 138/1/1 144/2/1 143/3/1 
s 64
f 138/4/12 137/1/12 141/2/12 144/3/12 
s 2
f 145/1/10 146/2/10 147/3/10 148/4/3 
s 4
f 149/4/15 150/1/15 151/2/15 152/3/15 
s 8
f 145/4/2 148/1/2 150/2/2 149/3/2 
s 16
f 148/4/4 147/1/4 151/2/4 150/3/4 
s 32
f 147/4/1 146/1/1 152/2/1 151/3/1 
s 64
f 146/4/12 145/1/12 149/2/12 152/3/12 
s 2
f 153/1/10 154/2/10 155/3/10 156/4/10 
s 4
f 157/4/15 158/1/15 159/2/15 160/3/15 
s 8
f 153/4/11 156/1/11 158/2/11 157/3/11 
s 16
f 156/4/4 155/1/4 159/2/4 158/3/4 
s 32
f 155/4/1 154/1/1 160/2/1 159/3/1 
s 64
f 154/4/12 153/1/12 157/2/12 160/3/12 
s 2
f 161/1/10 162/2/10 163/3/10 164/4/3 
s 4
f 165/4/15 166/1/15 167/2/15 168/3/15 
s 8
f 161/4/2 164/1/2 166/2/2 165/3/2 
s 16
f 164/4/4 163/1/4 167/2/4 166/3/4 
s 32
f 163/4/1 162/1/1 168/2/1 167/3/1 
s 64
f 162/4/12 161/1/12 165/2/12 168/3/12 
s 2
f 169/1/10 170/2/3 171/3/10 172/4/10 
s 4
f 173/4/15 174/1/15 175/2/15 176/3/15 
s 8
f 169/4/2 172/1/2 174/2/2 173/3/2 
s 16
f 172/4/4 171/1/4 175/2/4 174/3/4 
s 32
f 171/4/1 170/1/1 176/2/1 175/3/1 
s 64
f 170/4/12 169/1/12 173/2/12 176/3/12 
s 2
f 177/1/16 178/2/16 179/3/16 180/4/16 
s 4
f 181/4/13 182/1/13 183/2/13 184/3/13 
s 8
f 177/4/2 180/1/2 182/2/2 181/3/2 
s 16
f 180/4/6 179/1/6 183/2/6 182/3/6 
s 32
f 179/4/1 178/1/1 184/2/1 183/3/1 
s 64
f 178/4/17 177/1/17 181/2/17 184/3/17 
s 2
f 185/1/16 186/2/5 187/3/16 188/4/16 
s 4
f 189/4/13 190/1/13 191/2/13 192/3/13 
s 8
f 185/4/2 188/1/2 190/2/2 189/3/2 
s 16
f 188/4/6 187/1/6 191/2/6 190/3/6 
s 32
f 187/4/1 186/1/1 192/2/1 191/3/1 
s 64
f 186/4/17 185/1/17 189/2/17 192/3/17 
s 2
f 193/1/16 194/2/16 195/3/16 196/4/5 
s 4
f 197/4/13 198/1/18 199/2/13 200/3/13 
s 8
f 193/4/2 196/1/2 198/2/2 197/3/2 
s 16
f 196/4/6 195/1/6 199/2/6 198/3/6 
s 32
f 195/4/19 194/1/19 200/2/19 199/3/19 
s 64
f 194/4/17 193/1/17 197/2/17 200/3/17 
s 2
f 201/1/16 202/2/5 203/3/16 204/4/16 
s 4
f 205/4/13 206/1/13 207/2/13 208/3/13 
s 8
f 201/4/2 204/1/2 206/2/2 205/3/2 
s 16
f 204/4/6 203/1/6 207/2/6 206/3/6 
s 32
f 203/4/1 202/1/1 208/2/1 207/3/1 
s 64
f 202/4/17 201/1/17 205/2/17 208/3/17 
s 2
f 209/1/16 210/2/5 211/3/16 212/4/16 
s 4
f 213/4/13 214/1/13 215/2/13 216/3/13 
s 8
f 209/4/2 212/1/2 214/2/2 213/3/2 
s 16
f 212/4/6 211/1/6 215/2/6 214/3/6 
s 32
f 211/4/1 210/1/1 216/2/1 215/3/1 
s 64
f 210/4/17 209/1/17 213/2/17 216/3/17 
s 2
f 217/1/6 218/2/6 219/3/6 220/4/6 
s 4
f 221/4/17 222/1/17 223/2/17 224/3/17 
s 8
f 217/4/2 220/1/2 222/2/2 221/3/2 
s 16
f 220/4/3 219/1/3 223/2/3 222/3/3 
s 32
f 219/4/1 218/1/1 224/2/1 223/3/1 
s 64
f 218/4/15 217/1/15 221/2/15 224/3/15 
s 2
f 225/1/6 226/2/6 227/3/6 228/4/6 
s 4
f 229/4/20 230/1/20 231/2/20 232/3/17 
s 8
f 225/4/2 228/1/2 230/2/2 229/3/2 
s 16
f 228/4/3 227/1/3 231/2/3 230/3/3 
s 32
f 227/4/1 226/1/1 232/2/1 231/3/1 
s 64
f 226/4/15 225/1/15 229/2/15 232/3/15 
s 2
f 233/1/6 234/2/6 235/3/6 236/4/6 
s 4
f 237/4/20 238/1/20 239/2/20 240/3/20 
s 8
f 233/4/2 236/1/2 238/2/2 237/3/2 
s 16
f 236/4/3 235/1/3 239/2/3 238/3/3 
s 32
f 235/4/7 234/1/7 240/2/7 239/3/7 
s 64
f 234/4/15 233/1/15 237/2/15 240/3/15 
s 2
f 241/1/6 242/2/6 243/3/6 244/4/6 
s 4
f 245/4/20 246/1/17 247/2/20 248/3/20 
s 8
f 241/4/2 244/1/2 246/2/2 245/3/2 
s 16
f 244/4/3 243/1/3 247/2/3 246/3/3 
s 32
f 243/4/1 242/1/1 248/2/1 247/3/1 
s 64
f 242/4/15 241/1/15 245/2/15 248/3/15 
s 2
f 249/1/6 250/2/6 251/3/6 252/4/6 
s 4
f 253/4/20 254/1/20 255/2/20 256/3/17 
s 8
f 249/4/2 252/1/2 254/2/2 253/3/2 
s 16
f 252/4/3 251/1/3 255/2/3 254/3/3 
s 32
f 251/4/1 250/1/1 256/2/1 255/3/1 
s 64
f 250/4/15 249/1/15 253/2/15 256/3/15 
s 2
f 257/1/11 258/2/11 259/3/11 260/4/11 
s 4
f 261/4/7 262/1/7 263/2/7 264/3/7 
s 8
f 257/4/5 260/1/5 262/2/5 261/3/5 
s 16
f 260/4/8 259/1/8 263/2/8 262/3/8 
s 32
f 259/4/3 258/1/3 264/2/3 263/3/3 
s 64
f 258/4/6 257/1/6 261/2/6 264/3/6 
s 2
f 265/1/11 266/2/11 267/3/11 268/4/11 
s 4
f 269/4/7 270/1/7 271/2/7 272/3/7 
s 8
f 265/4/5 268/1/5 270/2/5 269/3/5 
s 16
f 268/4/8 267/1/8 271/2/8 270/3/8 
s 32
f 267/4/10 266/1/10 272/2/10 271/3/10 
s 64
f 266/4/6 265/1/6 269/2/6 272/3/6 
s 2
f 273/1/11 274/2/11 275/3/11 276/4/11 
s 4
f 277/4/7 278/1/7 279/2/7 280/3/7 
s 8
f 273/4/5 276/1/5 278/2/5 277/3/5 
s 16
f 276/4/8 275/1/8 279/2/8 278/3/8 
s 32
f 275/4/3 274/1/3 280/2/3 279/3/3 
s 64
f 274/4/6 273/1/6 277/2/6 280/3/6 
s 2
f 281/1/11 282/2/11 283/3/11 284/4/11 
s 4
f 285/4/7 286/1/7 287/2/7 288/3/7 
s 8
f 281/4/5 284/1/5 286/2/5 285/3/5 
s 16
f 284/4/8 283/1/8 287/2/8 286/3/8 
s 32
f 283/4/10 282/1/10 288/2/10 287/3/10 
s 64
f 282/4/6 281/1/6 285/2/6 288/3/6 
s 2
f 289/1/11 290/2/11 291/3/11 292/4/11 
s 4
f 293/4/7 294/1/7 295/2/7 296/3/7 
s 8
f 289/4/5 292/1/5 294/2/5 293/3/5 
s 16
f 292/4/8 291/1/8 295/2/8 294/3/8 
s 32
f 291/4/3 290/1/3 296/2/3 295/3/3 
s 64
f 290/4/6 289/1/6 293/2/6 296/3/6 
# 234 polygons

